<?xml version="1.0" encoding="iso-8859-1"?>
<!-- Generator: Adobe Illustrator 19.0.0, SVG Export Plug-In . SVG Version: 6.00 Build 0)  -->
<svg version="1.1" id="Layer_1" xmlns="http://www.w3.org/2000/svg" xmlns:xlink="http://www.w3.org/1999/xlink" x="0px" y="0px"
	 viewBox="0 0 512 512" style="enable-background:new 0 0 512 512;" xml:space="preserve">
<g>
	<g>
		<path d="M381.31,0H130.69c-22.476,0-40.762,18.286-40.762,40.762v430.476c0,22.476,18.286,40.762,40.762,40.762h250.62
			c22.476,0,40.762-18.286,40.762-40.762V40.762C422.072,18.286,403.786,0,381.31,0z M391.655,471.238
			c0,5.704-4.641,10.345-10.345,10.345H130.69c-5.704,0-10.345-4.641-10.345-10.345V208.311h271.31V471.238z M391.655,177.894
			h-271.31V40.762c0-5.704,4.641-10.345,10.345-10.345h250.62c5.704,0,10.345,4.641,10.345,10.345V177.894z"/>
	</g>
</g>
<g>
	<g>
		<rect x="149.521" y="73.691" width="30.417" height="60.926"/>
	</g>
</g>
<g>
	<g>
		<rect x="149.521" y="251.58" width="30.417" height="60.926"/>
	</g>
</g>
<g>
</g>
<g>
</g>
<g>
</g>
<g>
</g>
<g>
</g>
<g>
</g>
<g>
</g>
<g>
</g>
<g>
</g>
<g>
</g>
<g>
</g>
<g>
</g>
<g>
</g>
<g>
</g>
<g>
</g>
</svg>
