<?xml version="1.0" encoding="iso-8859-1"?>
<!-- Generator: Adobe Illustrator 19.0.0, SVG Export Plug-In . SVG Version: 6.00 Build 0)  -->
<svg version="1.1" id="Layer_1" xmlns="http://www.w3.org/2000/svg" xmlns:xlink="http://www.w3.org/1999/xlink" x="0px" y="0px"
	 viewBox="0 0 512 512" style="enable-background:new 0 0 512 512;" xml:space="preserve">
<g>
	<g>
		<path d="M406.261,214.35V16.696c0-9.22-7.475-16.696-16.696-16.696h-267.13c-9.22,0-16.696,7.475-16.696,16.696V214.35
			c-19.433,6.892-33.391,25.45-33.391,47.215c0,22.01,14.278,40.737,34.054,47.439c4.189,44.976,28.28,84.257,63.361,108.931
			l-29.363,70.988c-2.131,5.151-1.55,11.026,1.548,15.661c3.096,4.634,8.304,7.416,13.879,7.416h200.348
			c5.575,0,10.782-2.783,13.88-7.417c3.099-4.635,3.68-10.509,1.549-15.661l-29.363-70.988c35.08-24.674,59.171-63.956,63.36-108.93
			c19.774-6.702,34.052-25.429,34.052-47.439C439.652,239.8,425.693,221.242,406.261,214.35z M139.13,33.391H372.87v178.087H139.13
			V33.391z M180.799,478.609l18.423-44.541c17.527,7.179,36.696,11.149,56.777,11.149s39.249-3.969,56.776-11.149l18.424,44.541
			H180.799z M256,411.826c-58.773,0-107.546-43.614-115.672-100.174h231.344C363.546,368.213,314.774,411.826,256,411.826z
			 M389.565,278.261h-267.13c-9.206,0-16.696-7.49-16.696-16.696c0-9.206,7.49-16.696,16.696-16.696h267.13
			c9.206,0,16.696,7.49,16.696,16.696C406.261,270.771,398.771,278.261,389.565,278.261z"/>
	</g>
</g>
<g>
	<g>
		<path d="M322.783,66.783h-33.391c-9.22,0-16.696,7.475-16.696,16.696s7.475,16.696,16.696,16.696h33.391
			c9.22,0,16.696-7.475,16.696-16.696S332.003,66.783,322.783,66.783z"/>
	</g>
</g>
<g>
</g>
<g>
</g>
<g>
</g>
<g>
</g>
<g>
</g>
<g>
</g>
<g>
</g>
<g>
</g>
<g>
</g>
<g>
</g>
<g>
</g>
<g>
</g>
<g>
</g>
<g>
</g>
<g>
</g>
</svg>
