<svg 
 xmlns="http://www.w3.org/2000/svg"
 xmlns:xlink="http://www.w3.org/1999/xlink"
 width="1455px" height="1237px">
<path fill-rule="evenodd"  opacity="0.2" fill="rgb(243, 71, 145)"
 d="M1327.582,587.242 L1274.374,533.997 L1293.843,461.269 L1366.521,441.787 L1419.729,495.032 L1400.260,567.760 L1327.582,587.242 ZM1257.276,323.391 L1204.054,270.120 L1223.528,197.357 L1296.225,177.865 L1349.448,231.136 L1329.974,303.899 L1257.276,323.391 ZM1222.266,190.801 L1169.037,137.535 L1188.513,64.780 L1261.219,45.291 L1314.448,98.556 L1294.971,171.310 L1222.266,190.801 ZM1198.676,268.601 L1125.962,288.091 L1072.727,234.826 L1092.206,162.071 L1164.919,142.581 L1218.154,195.846 L1198.676,268.601 ZM994.926,252.600 L941.691,199.335 L961.170,126.580 L1033.884,107.090 L1087.119,160.355 L1067.639,233.110 L994.926,252.600 ZM972.121,329.357 L899.407,348.847 L846.172,295.582 L865.651,222.827 L938.365,203.337 L991.600,256.602 L972.121,329.357 ZM768.518,313.817 L715.280,260.500 L734.760,187.674 L807.478,168.165 L860.716,221.482 L841.236,294.308 L768.518,313.817 ZM637.530,278.107 L584.306,224.836 L603.781,152.073 L676.478,132.581 L729.701,185.852 L710.226,258.615 L637.530,278.107 ZM602.519,145.516 L549.289,92.252 L568.767,19.497 L641.472,0.007 L694.700,53.272 L675.224,126.027 L602.519,145.516 ZM578.928,223.318 L506.215,242.807 L452.980,189.542 L472.458,116.788 L545.173,97.298 L598.408,150.563 L578.928,223.318 ZM375.178,207.317 L321.944,154.052 L341.423,81.297 L414.136,61.807 L467.371,115.072 L447.893,187.827 L375.178,207.317 ZM352.374,284.074 L279.660,303.563 L226.425,250.298 L245.904,177.543 L318.617,158.053 L371.852,211.319 L352.374,284.074 ZM148.771,268.533 L95.533,215.217 L115.013,142.391 L187.731,122.882 L240.970,176.199 L221.490,249.024 L148.771,268.533 ZM125.965,345.364 L53.246,364.873 L0.008,311.557 L19.488,238.731 L92.206,219.222 L145.445,272.539 L125.965,345.364 ZM223.020,254.809 L276.258,308.126 L256.778,380.952 L184.060,400.460 L130.821,347.144 L150.301,274.318 L223.020,254.809 ZM363.954,782.506 L417.191,835.822 L397.711,908.648 L324.993,928.157 L271.755,874.840 L291.235,802.014 L363.954,782.506 ZM494.766,818.093 L548.005,871.410 L528.525,944.235 L455.806,963.744 L402.568,910.427 L422.048,837.601 L494.766,818.093 ZM517.650,740.827 L590.365,721.337 L643.600,774.602 L624.121,847.357 L551.407,866.847 L498.172,813.582 L517.650,740.827 ZM721.170,756.889 L774.405,810.155 L754.926,882.910 L682.212,902.399 L628.977,849.134 L648.456,776.379 L721.170,756.889 ZM755.972,888.830 L809.197,942.095 L789.721,1014.850 L717.021,1034.340 L663.797,981.074 L683.272,908.320 L755.972,888.830 ZM887.829,924.892 L941.038,978.137 L921.569,1050.865 L848.891,1070.348 L795.682,1017.102 L815.152,944.374 L887.829,924.892 ZM923.049,1055.998 L976.258,1109.243 L956.788,1181.971 L884.111,1201.453 L830.902,1148.208 L850.371,1075.480 L923.049,1055.998 ZM1053.789,1091.537 L1106.998,1144.782 L1087.529,1217.510 L1014.851,1236.993 L961.642,1183.747 L981.112,1111.020 L1053.789,1091.537 ZM1011.797,463.075 L1031.272,390.320 L1103.971,370.830 L1157.196,424.095 L1137.721,496.850 L1065.022,516.339 L1011.797,463.075 ZM1200.075,274.892 L1253.319,328.164 L1233.837,400.927 L1161.112,420.419 L1107.869,367.148 L1127.351,294.385 L1200.075,274.892 ZM1069.170,238.890 L1122.405,292.155 L1102.926,364.910 L1030.212,384.400 L976.977,331.134 L996.456,258.379 L1069.170,238.890 ZM1071.729,1013.032 L1052.260,1085.760 L979.582,1105.243 L926.373,1051.997 L945.843,979.269 L1018.520,959.787 L1071.729,1013.032 ZM981.973,821.899 L909.276,841.391 L856.053,788.120 L875.528,715.356 L948.225,695.864 L1001.448,749.136 L981.973,821.899 ZM966.448,616.556 L946.971,689.310 L874.266,708.800 L821.037,655.535 L840.514,582.780 L913.219,563.290 L966.448,616.556 ZM842.767,300.093 L896.005,353.409 L876.525,426.235 L803.806,445.744 L750.568,392.427 L770.048,319.602 L842.767,300.093 ZM711.954,264.506 L765.192,317.822 L745.712,390.648 L672.993,410.157 L619.755,356.840 L639.235,284.014 L711.954,264.506 ZM580.329,229.609 L633.572,282.880 L614.090,355.644 L541.365,375.135 L488.122,321.864 L507.604,249.101 L580.329,229.609 ZM376.709,213.096 L449.423,193.606 L502.658,246.871 L483.179,319.626 L410.465,339.116 L357.230,285.851 L376.709,213.096 ZM420.518,831.817 L367.280,778.500 L386.760,705.674 L459.478,686.166 L512.716,739.482 L493.236,812.308 L420.518,831.817 ZM445.275,471.056 L392.050,417.791 L411.525,345.036 L484.225,325.547 L537.450,378.811 L517.975,451.566 L445.275,471.056 ZM543.404,381.091 L616.082,361.609 L669.291,414.854 L649.822,487.582 L577.144,507.064 L523.935,453.819 L543.404,381.091 ZM578.624,512.197 L651.302,492.714 L704.510,545.959 L685.041,618.687 L612.363,638.170 L559.155,584.924 L578.624,512.197 ZM646.926,770.600 L593.691,717.335 L613.169,644.580 L685.884,625.091 L739.119,678.356 L719.640,751.110 L646.926,770.600 ZM707.835,541.959 L654.626,488.714 L674.095,415.986 L746.774,396.503 L799.982,449.748 L780.513,522.476 L707.835,541.959 ZM815.782,654.227 L743.104,673.710 L689.895,620.464 L709.364,547.736 L782.042,528.254 L835.251,581.499 L815.782,654.227 ZM905.319,846.164 L885.837,918.927 L813.112,938.419 L759.869,885.148 L779.351,812.385 L852.076,792.893 L905.319,846.164 ZM744.206,680.071 L816.920,660.581 L870.155,713.846 L850.676,786.601 L777.962,806.091 L724.727,752.826 L744.206,680.071 ZM1235.830,406.892 L1289.038,460.137 L1269.569,532.865 L1196.891,552.348 L1143.682,499.103 L1163.151,426.375 L1235.830,406.892 ZM1271.049,537.997 L1324.258,591.243 L1304.789,663.971 L1232.111,683.453 L1178.902,630.208 L1198.371,557.480 L1271.049,537.997 ZM1401.789,573.537 L1454.998,626.782 L1435.529,699.510 L1362.851,718.993 L1309.642,665.748 L1329.111,593.020 L1401.789,573.537 Z"/>
</svg>